<svg width="15" height="15" viewBox="0 0 15 15" fill="none" xmlns="http://www.w3.org/2000/svg">
<g clip-path="url(#clip0_2814_352)">
<path d="M7.36575 5.79722C9.4216 5.75839 11.359 6.63956 12.85 8.0215C12.9125 8.07917 12.9761 8.13497 13.0406 8.1903C13.2279 8.35345 13.4015 8.53036 13.5628 8.71913C13.61 8.77397 13.6577 8.82803 13.7059 8.88186C14.1239 9.35127 14.4775 9.85827 14.7948 10.4004C14.8068 10.4204 14.8188 10.4405 14.8312 10.4612C14.9703 10.6966 15.0572 10.914 14.9999 11.1914C14.9405 11.3335 14.8563 11.4435 14.7271 11.5283C14.5235 11.6111 14.3656 11.6181 14.1572 11.5482C13.953 11.4406 13.8703 11.3018 13.7694 11.1017C13.4263 10.4518 12.9602 9.87317 12.451 9.34569C12.4336 9.32759 12.4161 9.30949 12.3981 9.29083C12.1733 9.05901 11.9456 8.83995 11.6893 8.64257C11.6523 8.61318 11.6153 8.58376 11.5783 8.55433C10.565 7.75537 9.40076 7.21942 8.11511 7.06054C8.08407 7.05668 8.05303 7.05283 8.02104 7.04886C7.9351 7.04015 7.84985 7.03483 7.76355 7.03124C7.72665 7.02969 7.68976 7.02814 7.65174 7.02655C6.31823 6.99031 4.91676 7.45025 3.83777 8.23241C3.81685 8.24733 3.79593 8.26226 3.77438 8.27763C3.48701 8.48286 3.21504 8.69217 2.95886 8.93554C2.92058 8.9687 2.88214 9.00167 2.84351 9.03441C2.59889 9.24795 2.37528 9.47932 2.17368 9.73376C2.10727 9.81693 2.03789 9.89693 1.96826 9.97741C1.66528 10.342 1.42542 10.7496 1.19541 11.1629C1.17918 11.1916 1.16295 11.2202 1.14623 11.2498C1.13205 11.2752 1.11788 11.3007 1.10327 11.327C0.988873 11.4902 0.834858 11.5633 0.644409 11.6016C0.448828 11.6132 0.293647 11.5535 0.146362 11.4258C0.0284831 11.3047 -0.0117048 11.183 -0.0239258 11.0156C-0.0126625 10.758 0.107087 10.5594 0.234253 10.3418C0.246173 10.3209 0.258092 10.3 0.270373 10.2785C0.558516 9.77571 0.904232 9.30986 1.28894 8.87694C1.30773 8.85563 1.32652 8.83432 1.34587 8.81236C1.51506 8.62211 1.69127 8.43994 1.87122 8.25988C1.89807 8.23267 1.92492 8.20546 1.95258 8.17742C2.13232 7.9973 2.3195 7.83308 2.51941 7.67577C2.54052 7.65893 2.56164 7.6421 2.5834 7.62475C3.96523 6.52925 5.59539 5.85987 7.36575 5.79722Z" fill="white"/>
<path d="M7.38251 8.08137C8.14401 8.06032 8.8642 8.30844 9.43375 8.81837C9.45992 8.84179 9.48609 8.8652 9.51306 8.88933C10.0237 9.37208 10.3716 10.0724 10.4005 10.7813C10.4021 10.8101 10.4036 10.839 10.4051 10.8687C10.425 11.5873 10.207 12.3413 9.71024 12.876C9.65776 12.9304 9.60442 12.9837 9.55093 13.0371C9.53175 13.0584 9.51257 13.0796 9.4928 13.1016C9.0458 13.5877 8.31427 13.8656 7.66552 13.8937C7.12337 13.9063 6.63557 13.8137 6.1525 13.5645C6.12055 13.5481 6.0886 13.5318 6.05568 13.5149C5.84732 13.4007 5.67763 13.2613 5.50797 13.0957C5.48259 13.0715 5.45721 13.0474 5.43106 13.0225C5.4081 12.9983 5.38514 12.9741 5.36148 12.9492C5.33548 12.923 5.33548 12.923 5.30895 12.8962C4.80358 12.3635 4.58769 11.6093 4.59541 10.8887C4.6278 10.0886 4.97903 9.36316 5.55809 8.81506C6.05885 8.36286 6.71325 8.11641 7.38251 8.08137ZM6.18179 9.90236C5.88786 10.2941 5.74979 10.741 5.81341 11.2284C5.89908 11.6977 6.1217 12.0776 6.49822 12.368C6.89541 12.6326 7.32041 12.7393 7.7953 12.673C8.28269 12.5676 8.68008 12.2981 8.95035 11.8817C9.19717 11.4502 9.25369 11.0141 9.14192 10.533C9.01898 10.1157 8.74552 9.74818 8.37231 9.52299C7.62053 9.12499 6.74621 9.24499 6.18179 9.90236Z" fill="white"/>
<path d="M0.611539 4.18029C0.655838 4.17955 0.655838 4.17955 0.701032 4.1788C0.873073 4.19916 0.986061 4.28602 1.10959 4.40185C1.14765 4.43708 1.14765 4.43708 1.18649 4.47303C1.21066 4.49546 1.23483 4.5179 1.25973 4.54101C1.29743 4.57414 1.33526 4.60711 1.37326 4.63988C1.48795 4.73978 1.59992 4.84257 1.71186 4.94553C1.80606 5.03214 1.90067 5.11827 1.99582 5.20385C2.01919 5.225 2.04257 5.24615 2.06666 5.26794C2.11679 5.31257 2.16758 5.35647 2.21886 5.39977C2.38594 5.54291 2.50187 5.64856 2.52831 5.87688C2.53723 6.0622 2.5135 6.20642 2.40231 6.35741C2.26839 6.50488 2.11845 6.56306 1.92257 6.57348C1.63483 6.56435 1.45861 6.36933 1.25973 6.18163C1.21103 6.13755 1.1622 6.09361 1.11325 6.0498C1.089 6.02797 1.06476 6.00614 1.03978 5.98365C0.991742 5.94043 0.943678 5.89725 0.895582 5.8541C0.791074 5.76028 0.686712 5.66633 0.583387 5.57121C0.567974 5.55702 0.552561 5.54283 0.536681 5.52822C0.493083 5.48804 0.449542 5.4478 0.406003 5.40755C0.347558 5.35486 0.289274 5.30498 0.228162 5.25569C0.0970994 5.14317 0.0404312 5.03686 0.0180487 4.8651C0.0108017 4.67185 0.027382 4.54806 0.146451 4.39452C0.288736 4.25224 0.409423 4.18106 0.611539 4.18029Z" fill="white"/>
<path d="M14.6314 4.21702C14.7864 4.31016 14.9003 4.43157 14.9705 4.5996C14.9803 4.6797 14.9803 4.6797 14.9815 4.76805C14.9823 4.79691 14.9831 4.82576 14.984 4.85549C14.9515 5.08553 14.8257 5.2295 14.6555 5.37779C14.6372 5.39433 14.6188 5.41087 14.5998 5.4279C14.5479 5.47444 14.4956 5.5205 14.4431 5.56639C14.4212 5.58577 14.3992 5.60514 14.3765 5.6251C14.3407 5.65647 14.3048 5.68771 14.2687 5.71883C14.1903 5.78769 14.1135 5.85829 14.0366 5.92894C14.0216 5.94274 14.0065 5.95653 13.991 5.97075C13.92 6.03586 13.8493 6.10115 13.7788 6.16686C13.3352 6.57599 13.3352 6.57599 13.0214 6.57038C12.8672 6.55357 12.7389 6.50112 12.6307 6.38842C12.5254 6.25188 12.4758 6.14554 12.4711 5.97106C12.47 5.94466 12.4689 5.91826 12.4678 5.89106C12.5013 5.64837 12.6478 5.50196 12.8245 5.34483C12.8444 5.32665 12.8642 5.30847 12.8847 5.28973C13.0036 5.18129 13.1248 5.07546 13.2461 4.96968C13.3227 4.90237 13.3977 4.83352 13.4727 4.76439C13.5029 4.73665 13.5331 4.70892 13.5633 4.68119C13.6201 4.62901 13.6769 4.57673 13.7336 4.52441C13.992 4.28815 14.2603 4.07299 14.6314 4.21702Z" fill="white"/>
<path d="M7.8273 1.19111C7.94676 1.2791 8.0388 1.38238 8.08583 1.52344C8.08905 1.59107 8.09049 1.65879 8.09101 1.72649C8.0913 1.75731 8.0913 1.75731 8.09159 1.78874C8.09217 1.85671 8.09251 1.92468 8.09281 1.99265C8.09293 2.01591 8.09305 2.03917 8.09317 2.06313C8.09378 2.18627 8.0942 2.30941 8.09447 2.43255C8.0948 2.55947 8.0958 2.68637 8.09697 2.81328C8.09774 2.9111 8.09798 3.00892 8.09808 3.10675C8.09823 3.15351 8.09857 3.20028 8.09911 3.24705C8.09983 3.31268 8.0998 3.37827 8.09959 3.44391C8.09977 3.48118 8.09994 3.51845 8.10012 3.55685C8.07894 3.7128 8.00921 3.85032 7.88258 3.94959C7.70991 4.07293 7.56319 4.09758 7.3534 4.07227C7.19615 4.02596 7.08781 3.93636 6.97918 3.8165C6.85808 3.59242 6.87608 3.32572 6.87687 3.07893C6.87682 3.04026 6.87676 3.00159 6.8767 2.96175C6.87662 2.8803 6.87674 2.79885 6.87701 2.71739C6.87735 2.61368 6.87716 2.50997 6.87681 2.40625C6.87654 2.30638 6.87673 2.20651 6.87687 2.10664C6.87675 2.06973 6.87663 2.03283 6.87651 1.99481C6.87803 1.70726 6.88401 1.46503 7.09225 1.24993C7.30192 1.06765 7.59011 1.05639 7.8273 1.19111Z" fill="white"/>
</g>
<defs>
<clipPath id="clip0_2814_352">
<rect width="15" height="15" fill="white"/>
</clipPath>
</defs>
</svg>
