<svg width="11" height="11" viewBox="0 0 11 11" fill="none" xmlns="http://www.w3.org/2000/svg">
<g clip-path="url(#clip0_580_2621)">
<path d="M7.14658 1.38728C6.7285 0.935891 6.14455 0.687317 5.50002 0.687317C4.85205 0.687317 4.26617 0.934387 3.85002 1.38298C3.42936 1.83652 3.2244 2.4529 3.27252 3.11849C3.36791 4.43161 4.36715 5.49982 5.50002 5.49982C6.63289 5.49982 7.63041 4.43183 7.7273 3.11892C7.77607 2.45935 7.56982 1.84425 7.14658 1.38728Z" fill="white"/>
<path d="M9.28112 10.3118H1.71863C1.61964 10.3131 1.52161 10.2923 1.43168 10.251C1.34174 10.2096 1.26215 10.1487 1.19871 10.0727C1.05906 9.90577 1.00277 9.67782 1.04445 9.4473C1.22578 8.4414 1.79168 7.59642 2.68113 7.00323C3.47132 6.47665 4.47228 6.18683 5.49988 6.18683C6.52747 6.18683 7.52843 6.47687 8.31862 7.00323C9.20808 7.5962 9.77398 8.44118 9.9553 9.44708C9.99698 9.67761 9.94069 9.90556 9.80105 10.0725C9.73762 10.1485 9.65805 10.2095 9.56811 10.2509C9.47817 10.2923 9.38013 10.3131 9.28112 10.3118V10.3118Z" fill="white"/>
</g>
<defs>
<clipPath id="clip0_580_2621">
<rect width="11" height="11" fill="white"/>
</clipPath>
</defs>
</svg>
