<svg width="15" height="15" viewBox="0 0 15 15" fill="none" xmlns="http://www.w3.org/2000/svg">
<path d="M4.6639 0.801047C4.70997 0.80011 4.75604 0.799145 4.80211 0.798156C4.95213 0.795125 5.10216 0.793025 5.25219 0.791141C5.27799 0.790813 5.30379 0.790485 5.33036 0.790148C5.57515 0.787109 5.81994 0.784494 6.06474 0.782746C6.34625 0.780706 6.62764 0.777553 6.90908 0.771293C7.23569 0.764164 7.56222 0.759875 7.88891 0.760013C7.91521 0.760022 7.9415 0.76003 7.96859 0.760039C8.75002 0.762074 9.44862 0.823744 10.086 1.33129C10.1375 1.37248 10.1375 1.37248 10.2247 1.40626C10.3159 1.36123 10.3159 1.36123 10.3736 1.32019C10.4785 1.26206 10.5916 1.27306 10.7089 1.27437C10.7361 1.27422 10.7633 1.27406 10.7914 1.2739C10.8809 1.27353 10.9703 1.27401 11.0598 1.27454C11.1223 1.27453 11.1847 1.27449 11.2471 1.27441C11.3777 1.27437 11.5082 1.27474 11.6388 1.2754C11.8061 1.27624 11.9734 1.27616 12.1407 1.27578C12.2695 1.27558 12.3983 1.27581 12.5271 1.27617C12.5888 1.2763 12.6504 1.27631 12.7121 1.2762C12.7983 1.27611 12.8845 1.2766 12.9707 1.27724C12.9961 1.2771 13.0216 1.27697 13.0478 1.27684C13.1853 1.27853 13.2781 1.28647 13.3887 1.37696C13.4646 1.46278 13.4876 1.51561 13.4877 1.62987C13.4879 1.65716 13.4881 1.68445 13.4884 1.71256C13.4882 1.74244 13.488 1.77232 13.4878 1.80311C13.4879 1.83493 13.488 1.86675 13.4882 1.89953C13.4885 2.00653 13.4883 2.11351 13.488 2.2205C13.4881 2.29706 13.4883 2.37361 13.4884 2.45017C13.4888 2.63675 13.4888 2.82333 13.4885 3.00991C13.4883 3.16154 13.4883 3.31318 13.4884 3.46481C13.4884 3.48638 13.4884 3.50795 13.4884 3.53018C13.4884 3.57399 13.4885 3.61781 13.4885 3.66163C13.4887 4.07268 13.4885 4.48372 13.488 4.89477C13.4876 5.24751 13.4877 5.60025 13.4881 5.95299C13.4885 6.36251 13.4887 6.77202 13.4884 7.18154C13.4884 7.22521 13.4884 7.26887 13.4884 7.31254C13.4884 7.33402 13.4883 7.35551 13.4883 7.37765C13.4882 7.52909 13.4884 7.68054 13.4886 7.83199C13.4889 8.03583 13.4887 8.23967 13.4882 8.44351C13.488 8.51843 13.4881 8.59334 13.4883 8.66825C13.4885 8.77032 13.4882 8.87237 13.4878 8.97444C13.488 9.00426 13.4882 9.03407 13.4884 9.06479C13.4862 9.3179 13.4862 9.3179 13.3887 9.4336C13.243 9.53357 13.1122 9.53378 12.942 9.53194C12.9153 9.532 12.8886 9.53206 12.8611 9.53212C12.7732 9.53221 12.6854 9.53167 12.5975 9.53111C12.5363 9.53102 12.475 9.53096 12.4138 9.53094C12.2857 9.53081 12.1576 9.53039 12.0295 9.52974C11.8653 9.52891 11.701 9.52859 11.5367 9.52846C11.4104 9.52833 11.2841 9.52805 11.1578 9.5277C11.0972 9.52753 11.0366 9.52739 10.9761 9.52728C10.8915 9.52708 10.8069 9.52668 10.7223 9.52622C10.6848 9.52617 10.6848 9.52617 10.6464 9.52612C10.6233 9.52595 10.6003 9.52578 10.5765 9.52561C10.5465 9.52548 10.5465 9.52548 10.516 9.52535C10.459 9.5215 10.459 9.5215 10.3988 9.50328C10.333 9.48398 10.333 9.48398 10.251 9.54518C10.2163 9.57045 10.1819 9.59616 10.1477 9.6222C10.1295 9.63575 10.1112 9.64929 10.0924 9.66324C10.0384 9.70344 9.98499 9.74418 9.93168 9.78517C9.90608 9.80477 9.88047 9.82437 9.85409 9.84456C9.7813 9.90176 9.70989 9.96035 9.63871 10.0195C9.62409 10.0315 9.60947 10.0435 9.59441 10.0558C9.18219 10.3944 8.7903 10.7662 8.46684 11.1914C8.43936 11.2262 8.41185 11.2609 8.38433 11.2957C7.86294 11.9623 7.50865 12.7155 7.29382 13.5321C7.20953 13.841 7.05934 14.0964 6.77689 14.2613C6.75449 14.273 6.7321 14.2848 6.70903 14.2969C6.68814 14.3089 6.66726 14.321 6.64574 14.3334C6.37549 14.4674 6.00296 14.4625 5.71843 14.372C5.28119 14.1812 4.88286 13.8271 4.68754 13.3887C4.5875 13.1297 4.55118 12.8944 4.55571 12.6178C4.55606 12.5823 4.55641 12.5468 4.55678 12.5102C4.56432 12.1605 4.61366 11.8257 4.68754 11.4844C4.6932 11.4574 4.69885 11.4305 4.70468 11.4027C4.81071 10.9082 4.97309 10.4307 5.13558 9.95259C5.14226 9.93282 5.14894 9.91304 5.15582 9.89266C5.19929 9.76596 5.24958 9.64427 5.30278 9.5215C5.28546 9.52158 5.26815 9.52166 5.25031 9.52174C4.82745 9.52369 4.4046 9.52514 3.98175 9.52605C3.77725 9.5265 3.57275 9.52712 3.36826 9.52813C3.1707 9.5291 2.97315 9.52961 2.77559 9.52983C2.70043 9.53 2.62527 9.53031 2.55011 9.53079C2.44438 9.53143 2.33867 9.53151 2.23293 9.53147C2.18691 9.53195 2.18691 9.53195 2.13996 9.53243C1.67387 9.53051 1.28614 9.39052 0.946125 9.06888C0.628803 8.71588 0.569965 8.33416 0.574993 7.87721C0.575129 7.85523 0.575266 7.83324 0.575406 7.8106C0.585589 6.40451 1.0729 5.15146 1.58464 3.86349C1.67089 3.64632 1.75614 3.42878 1.84082 3.21099C1.87403 3.12591 1.90726 3.04084 1.9405 2.95577C1.96123 2.90261 1.98189 2.84942 2.00246 2.7962C2.16503 2.37596 2.33291 1.98115 2.63676 1.64064C2.65772 1.61658 2.67868 1.59252 2.70028 1.56774C3.21716 1.01102 3.92351 0.811455 4.6639 0.801047ZM3.2227 2.10939C3.204 2.1274 3.18531 2.14541 3.16605 2.16397C2.85788 2.48449 2.72169 2.97174 2.56535 3.37831C2.54231 3.43783 2.51925 3.49736 2.49618 3.55687C2.46075 3.64826 2.42535 3.73966 2.39002 3.83108C2.31285 4.03077 2.23472 4.23007 2.15588 4.4291C1.71191 5.55119 1.31886 6.64305 1.30558 7.86439C1.30493 7.90033 1.30428 7.93626 1.3036 7.97329C1.30422 8.21344 1.33528 8.37474 1.48903 8.56076C1.50705 8.57629 1.52506 8.59181 1.54362 8.6078C1.57008 8.63165 1.57008 8.63165 1.59706 8.65598C1.82952 8.80013 2.06812 8.80152 2.33507 8.79988C2.37499 8.79995 2.41491 8.80007 2.45483 8.80022C2.54029 8.80046 2.62574 8.80044 2.7112 8.80021C2.84639 8.79987 2.98157 8.80023 3.11676 8.8007C3.45233 8.80175 3.7879 8.80194 4.12346 8.80187C4.38473 8.80182 4.646 8.80202 4.90727 8.80304C5.04162 8.80353 5.17595 8.80348 5.31031 8.80301C5.39383 8.80284 5.47734 8.80316 5.56086 8.80361C5.61797 8.80377 5.67507 8.80335 5.73217 8.80291C5.7833 8.80333 5.7833 8.80333 5.83546 8.80376C5.86501 8.80375 5.89457 8.80375 5.92501 8.80374C6.02798 8.82236 6.07738 8.86413 6.15239 8.93556C6.22454 9.07987 6.19529 9.24225 6.15011 9.39123C6.11389 9.49115 6.07426 9.58966 6.03397 9.688C5.98891 9.79826 5.94575 9.90927 5.90245 10.0202C5.8937 10.0425 5.88496 10.0649 5.87595 10.0879C5.57254 10.8665 5.293 11.7308 5.29179 12.5739C5.29107 12.6004 5.29035 12.627 5.28962 12.6544C5.28842 12.934 5.37435 13.1586 5.56645 13.3627C5.77006 13.5548 5.93971 13.6973 6.22643 13.6909C6.33426 13.6771 6.39476 13.6366 6.47465 13.5645C6.57913 13.4248 6.61102 13.2594 6.65593 13.0939C7.06589 11.6449 8.00145 10.3195 9.19926 9.40431C9.2369 9.37466 9.27451 9.34498 9.3121 9.31527C9.35381 9.28267 9.39554 9.25009 9.4373 9.21754C9.45563 9.20309 9.47397 9.18863 9.49286 9.17374C9.51206 9.15896 9.53127 9.14419 9.55105 9.12896C9.57113 9.11328 9.59121 9.09759 9.6119 9.08143C9.68109 9.03446 9.74359 9.00022 9.81855 8.96483C10.0619 8.84527 10.0619 8.84527 10.224 8.63762C10.2691 8.45126 10.2578 8.26046 10.2519 8.07025C10.2518 8.00641 10.2518 7.94258 10.2521 7.87874C10.2523 7.70612 10.2493 7.53367 10.2459 7.36109C10.2427 7.1805 10.2424 6.9999 10.2419 6.81929C10.2403 6.47758 10.2362 6.13596 10.2312 5.7943C10.2256 5.40519 10.2229 5.01609 10.2204 4.62695C10.2152 3.82678 10.2065 3.02668 10.1954 2.22657C9.39548 1.76594 8.72689 1.44546 7.79577 1.48056C7.67177 1.48448 7.54775 1.4844 7.4237 1.48487C7.21685 1.48617 7.01017 1.48987 6.8034 1.49547C6.51293 1.50334 6.22255 1.5065 5.93199 1.50885C5.70363 1.51087 5.47528 1.51415 5.24693 1.51761C5.22289 1.51796 5.19886 1.51831 5.17409 1.51867C5.03578 1.52076 4.89751 1.52349 4.75923 1.52716C4.71774 1.5282 4.67624 1.52905 4.63474 1.52971C4.06833 1.53909 3.62395 1.70951 3.2227 2.10939ZM10.8985 2.0215C10.8985 4.2548 10.8985 6.4881 10.8985 8.78907C11.5172 8.78907 12.136 8.78907 12.7735 8.78907C12.7735 6.55577 12.7735 4.32247 12.7735 2.0215C12.1547 2.0215 11.536 2.0215 10.8985 2.0215Z" fill="white"/>
</svg>
