<svg width="15" height="15" viewBox="0 0 15 15" fill="none" xmlns="http://www.w3.org/2000/svg">
<g clip-path="url(#clip0_2812_350)">
<path d="M9.20273 0.252903C9.65646 0.517655 9.9358 0.955536 10.0791 1.45339C10.2822 2.36815 10.0207 3.2687 9.75486 4.13955C9.60477 4.63136 9.49149 5.11403 9.43344 5.62499C9.45168 5.62 9.46992 5.61502 9.48872 5.60988C10.2251 5.41679 10.9714 5.32665 11.7319 5.32498C11.8094 5.3247 11.8869 5.32379 11.9644 5.32286C12.3982 5.32015 12.8409 5.35227 13.253 5.49865C13.2745 5.50607 13.296 5.5135 13.3181 5.52115C13.5261 5.59686 13.7069 5.69988 13.8866 5.83007C13.9105 5.84744 13.9345 5.86481 13.9592 5.88271C14.2665 6.13018 14.4719 6.49666 14.5311 6.88475C14.5561 7.17086 14.5497 7.44649 14.4596 7.72132C14.4212 7.88929 14.5096 8.01907 14.586 8.16283C14.808 8.59946 14.8728 9.05519 14.749 9.53612C14.6728 9.76681 14.5479 9.96509 14.4139 10.166C14.4214 10.271 14.4368 10.37 14.4584 10.4729C14.564 10.9877 14.4992 11.531 14.2131 11.9798C14.0629 12.191 14.0629 12.191 13.9734 12.2684C13.8658 12.3632 13.8241 12.438 13.8129 12.5805C13.8095 12.6567 13.8078 12.7329 13.8065 12.8092C13.7969 13.3224 13.5965 13.7519 13.242 14.1211C12.815 14.5305 12.2579 14.7496 11.6893 14.8828C11.6636 14.889 11.6379 14.8951 11.6114 14.9015C10.9064 15.06 10.1688 15.0115 9.45158 15.0014C9.34628 15 9.24097 14.9989 9.13567 14.998C7.77128 14.9858 6.41844 14.9181 5.0618 14.771C5.02182 14.7667 5.02182 14.7667 4.98104 14.7623C4.84958 14.7481 4.71831 14.733 4.58712 14.7165C4.56178 14.7135 4.53645 14.7104 4.51034 14.7073C4.46295 14.7016 4.41559 14.6956 4.36829 14.6891C4.2054 14.67 4.09824 14.6914 3.96374 14.7844C3.79684 14.883 3.60838 14.8915 3.41947 14.8908C3.38498 14.8911 3.38498 14.8911 3.34979 14.8913C3.27448 14.8917 3.19917 14.8917 3.12386 14.8916C3.07103 14.8917 3.01821 14.8919 2.96538 14.892C2.85491 14.8922 2.74445 14.8922 2.63398 14.892C2.49305 14.8919 2.35214 14.8924 2.21121 14.8931C2.10218 14.8935 1.99315 14.8935 1.88411 14.8934C1.83218 14.8934 1.78026 14.8936 1.72833 14.8939C1.32862 14.8959 1.03116 14.8664 0.702972 14.6191C0.656747 14.5856 0.656747 14.5856 0.609588 14.5514C0.391253 14.3427 0.212948 14.0338 0.200993 13.7273C0.200718 13.6862 0.200603 13.6451 0.200614 13.604C0.200506 13.5812 0.200398 13.5585 0.200287 13.5352C0.199964 13.459 0.199851 13.3829 0.19974 13.3067C0.199556 13.2521 0.199362 13.1976 0.199157 13.143C0.19854 12.9637 0.198236 12.7843 0.197944 12.605C0.197826 12.5432 0.197705 12.4814 0.197582 12.4195C0.197024 12.1291 0.196608 11.8386 0.196364 11.5481C0.196078 11.2132 0.195307 10.8783 0.194122 10.5434C0.193237 10.2843 0.192805 10.0252 0.192708 9.76615C0.192639 9.61153 0.192378 9.45692 0.191639 9.3023C0.190955 9.15667 0.190834 9.01105 0.191134 8.86542C0.191149 8.81218 0.190966 8.75895 0.190562 8.70571C0.187609 8.29322 0.2324 7.95114 0.497894 7.61718C0.511905 7.59916 0.525916 7.58115 0.540351 7.56259C0.76782 7.30418 1.1032 7.18943 1.43539 7.14843C1.59631 7.14029 1.7569 7.14015 1.91799 7.14064C1.96412 7.1406 2.01025 7.14055 2.05638 7.14047C2.15253 7.14039 2.24868 7.14051 2.34483 7.14079C2.46733 7.14112 2.58982 7.14093 2.71232 7.14058C2.80741 7.14036 2.90249 7.14043 2.99758 7.14059C3.04272 7.14062 3.08786 7.14058 3.133 7.14044C3.4523 7.13968 3.73764 7.17273 4.04282 7.26561C4.05913 7.23517 4.07545 7.20474 4.09225 7.17337C4.22375 6.9317 4.36039 6.71296 4.54086 6.50389C4.56012 6.47916 4.57938 6.45442 4.59923 6.42894C4.65264 6.36399 4.70541 6.31226 4.76974 6.25853C4.96471 6.09533 5.12923 5.91773 5.27695 5.71105C5.29316 5.68844 5.30938 5.66583 5.32608 5.64254C5.52202 5.36438 5.69158 5.07115 5.85922 4.77538C5.87335 4.75068 5.88747 4.72597 5.90202 4.70052C6.2455 4.09813 6.53315 3.46834 6.80797 2.83217C6.8488 2.7385 6.89175 2.64592 6.93502 2.55335C7.15759 2.074 7.28063 1.68985 7.24098 1.15046C7.22032 0.821652 7.31965 0.504651 7.51816 0.243518C7.94707 -0.215958 8.71774 -0.0106881 9.20273 0.252903ZM8.17368 0.849598C8.11622 0.969157 8.11003 1.05975 8.11554 1.19155C8.11667 1.22948 8.11779 1.26742 8.11895 1.3065C8.11956 1.32637 8.12018 1.34624 8.12081 1.36671C8.12978 1.71204 8.12205 2.01131 7.97253 2.32958C7.93212 2.41806 7.89577 2.50785 7.85931 2.59803C6.47287 6.01455 6.47287 6.01455 5.32822 6.958C5.0407 7.2027 4.74235 7.67645 4.68735 8.05663C4.69192 8.0869 4.69649 8.11718 4.7012 8.14837C4.71718 8.26562 4.72065 8.37969 4.72017 8.49769C4.72019 8.5206 4.72022 8.5435 4.72024 8.5671C4.72029 8.64339 4.72013 8.71968 4.71997 8.79597C4.71996 8.85084 4.71997 8.90571 4.71998 8.96058C4.71999 9.10923 4.71982 9.25787 4.71961 9.40652C4.71943 9.56198 4.71941 9.71744 4.71938 9.87291C4.71929 10.1672 4.71905 10.4614 4.71875 10.7557C4.71843 11.0907 4.71827 11.4258 4.71812 11.7608C4.71781 12.4499 4.7173 13.139 4.71664 13.8281C4.81619 13.8779 4.92952 13.8775 5.03914 13.8892C5.06641 13.8922 5.09368 13.8952 5.12177 13.8982C6.49345 14.0462 7.85762 14.1089 9.23703 14.1201C9.34447 14.1211 9.45191 14.1223 9.55935 14.1235C9.72912 14.1254 9.89888 14.1268 10.0687 14.1278C10.1309 14.1282 10.1931 14.1287 10.2553 14.1294C11.0719 14.1378 12.039 14.0578 12.6564 13.4539C12.8483 13.2391 12.9286 13.0263 12.9253 12.735C12.9249 12.6967 12.9245 12.6585 12.9241 12.619C12.9196 12.5061 12.9082 12.3967 12.8883 12.2854C12.8922 12.162 12.9367 12.058 13.0185 11.9671C13.0656 11.9236 13.114 11.8824 13.1633 11.8414C13.4106 11.6242 13.5993 11.3619 13.6301 11.0247C13.6357 10.7873 13.5946 10.5851 13.502 10.3674C13.4387 10.2142 13.4196 10.097 13.4764 9.93712C13.5291 9.85322 13.5848 9.78366 13.6485 9.70824C13.845 9.46579 13.9425 9.22341 13.9279 8.9091C13.8947 8.65885 13.7826 8.48933 13.62 8.3005C13.5026 8.15701 13.459 8.05805 13.4637 7.87398C13.4828 7.75233 13.5322 7.65131 13.588 7.54233C13.6859 7.34142 13.6932 7.07837 13.6287 6.8661C13.4879 6.58885 13.252 6.42839 12.9643 6.32891C12.6506 6.23736 12.3376 6.19331 12.0116 6.18163C11.9794 6.18042 11.9471 6.17921 11.9139 6.17797C11.2478 6.166 10.5888 6.26479 9.9379 6.39758C9.905 6.40429 9.87211 6.411 9.83822 6.41791C9.77522 6.43092 9.71227 6.44419 9.64939 6.45775C9.3653 6.51734 9.13842 6.53285 8.8768 6.38671C8.68309 6.22251 8.6136 5.98497 8.58383 5.74218C8.52891 5.00162 8.78221 4.25901 8.99683 3.56103C9.20878 2.87014 9.43497 2.09018 9.11484 1.39525C8.97689 1.14613 8.79174 0.995503 8.51906 0.906932C8.40234 0.876834 8.29451 0.849598 8.17368 0.849598ZM1.17172 8.17382C1.08272 8.29454 1.07122 8.39571 1.07247 8.54138C1.07232 8.5634 1.07216 8.58541 1.072 8.60809C1.07158 8.68173 1.07179 8.75535 1.07199 8.82898C1.07183 8.88183 1.07162 8.93467 1.07139 8.98752C1.07086 9.13098 1.07089 9.27443 1.07106 9.41789C1.07115 9.53766 1.07097 9.65742 1.0708 9.77719C1.07038 10.0597 1.07043 10.3423 1.07076 10.6248C1.0711 10.9163 1.07069 11.2078 1.0699 11.4993C1.06925 11.7495 1.06906 11.9998 1.06923 12.2501C1.06933 12.3996 1.06926 12.549 1.06875 12.6985C1.0683 12.8391 1.06842 12.9796 1.06897 13.1202C1.06908 13.1717 1.06898 13.2233 1.06868 13.2748C1.06829 13.3453 1.06863 13.4157 1.06915 13.4861C1.06873 13.5167 1.06873 13.5167 1.0683 13.5478C1.07049 13.693 1.11088 13.7745 1.20102 13.8867C1.33218 13.9969 1.42331 14.0186 1.59298 14.0186C1.61387 14.0188 1.63476 14.0189 1.65628 14.0191C1.72487 14.0194 1.79343 14.019 1.86203 14.0184C1.90996 14.0184 1.9579 14.0185 2.00583 14.0186C2.10611 14.0186 2.20638 14.0182 2.30666 14.0176C2.43493 14.0167 2.56317 14.0168 2.69144 14.0172C2.79036 14.0174 2.88929 14.0172 2.98821 14.0168C3.03549 14.0167 3.08278 14.0167 3.13006 14.0168C3.19625 14.0169 3.26241 14.0164 3.32859 14.0157C3.36618 14.0156 3.40378 14.0154 3.44251 14.0153C3.59145 13.9987 3.6868 13.9525 3.7883 13.8428C3.87132 13.7198 3.87138 13.6129 3.87135 13.4698C3.87145 13.4481 3.87156 13.4264 3.87167 13.404C3.872 13.331 3.87211 13.258 3.87222 13.185C3.8724 13.1327 3.8726 13.0805 3.8728 13.0282C3.87331 12.8861 3.87362 12.7439 3.87386 12.6018C3.87402 12.513 3.87419 12.4243 3.87438 12.3355C3.87494 12.0578 3.87535 11.7801 3.8756 11.5024C3.87588 11.1818 3.87665 10.8611 3.87784 10.5404C3.87872 10.2926 3.87915 10.0448 3.87925 9.79705C3.87932 9.64902 3.87958 9.501 3.88032 9.35297C3.881 9.21371 3.88113 9.07447 3.88083 8.93521C3.88081 8.88412 3.881 8.83303 3.8814 8.78194C3.88192 8.71213 3.88171 8.64237 3.88132 8.57257C3.88165 8.55239 3.88197 8.53222 3.8823 8.51143C3.88037 8.36672 3.83923 8.28583 3.74985 8.17382C3.60556 8.0436 3.50718 8.02366 3.31558 8.02168C3.29537 8.02144 3.27516 8.0212 3.25434 8.02096C3.18746 8.02023 3.12058 8.01974 3.0537 8.01932C3.0308 8.01916 3.00791 8.01901 2.98431 8.01885C2.86304 8.01807 2.74177 8.0175 2.62049 8.01708C2.52038 8.01668 2.42028 8.01587 2.32017 8.01467C2.19907 8.01322 2.07797 8.0125 1.95686 8.01229C1.91085 8.0121 1.86484 8.01165 1.81884 8.01095C1.46435 7.99812 1.46435 7.99812 1.17172 8.17382Z" fill="white"/>
</g>
<defs>
<clipPath id="clip0_2812_350">
<rect width="15" height="15" fill="white"/>
</clipPath>
</defs>
</svg>
