<svg width="15" height="15" viewBox="0 0 15 15" fill="none" xmlns="http://www.w3.org/2000/svg">
<path d="M9.74534 1.89175C9.17522 1.27622 8.37893 0.937256 7.50003 0.937256C6.61643 0.937256 5.81751 1.27417 5.25003 1.88589C4.6764 2.50435 4.3969 3.34487 4.46253 4.25249C4.59261 6.04311 5.9552 7.49975 7.50003 7.49975C9.04485 7.49975 10.4051 6.04341 10.5372 4.25307C10.6037 3.35366 10.3225 2.51489 9.74534 1.89175Z" fill="#0075FF"/>
<path d="M12.6564 14.0616H2.34392C2.20894 14.0634 2.07526 14.035 1.95262 13.9786C1.82997 13.9222 1.72145 13.8392 1.63493 13.7355C1.4445 13.5079 1.36775 13.1971 1.42458 12.8827C1.67185 11.511 2.44353 10.3588 3.65642 9.5499C4.73396 8.83183 6.0989 8.43661 7.50016 8.43661C8.90143 8.43661 10.2664 8.83212 11.3439 9.5499C12.5568 10.3585 13.3285 11.5107 13.5757 12.8824C13.6326 13.1968 13.5558 13.5076 13.3654 13.7352C13.2789 13.8389 13.1704 13.922 13.0478 13.9785C12.9251 14.0349 12.7914 14.0633 12.6564 14.0616Z" fill="#0075FF"/>
</svg>
