<svg width="15" height="15" viewBox="0 0 15 15" fill="none" xmlns="http://www.w3.org/2000/svg">
<path d="M3.12604 1.69513C3.15868 1.69497 3.19133 1.6948 3.22496 1.69463C3.27805 1.69458 3.27805 1.69458 3.3322 1.69453C3.36981 1.69438 3.40742 1.69424 3.44616 1.69409C3.54901 1.6937 3.65185 1.69351 3.7547 1.69338C3.81906 1.6933 3.88342 1.69318 3.94778 1.69305C4.14946 1.69265 4.35114 1.69236 4.55282 1.69225C4.78506 1.69212 5.0173 1.6916 5.24954 1.69076C5.42945 1.69012 5.60937 1.68983 5.78929 1.68979C5.89657 1.68976 6.00384 1.68959 6.11111 1.68906C6.23088 1.68849 6.35064 1.68862 6.4704 1.68881C6.50561 1.68854 6.54082 1.68827 6.5771 1.68799C6.88357 1.68951 7.10171 1.74041 7.32536 1.95663C7.50065 2.15542 7.52065 2.35652 7.51281 2.61729C7.48493 2.84666 7.38466 3.01084 7.20794 3.15665C6.09236 3.84267 4.59065 3.28128 3.28101 3.28128C3.28101 6.06566 3.28101 8.85003 3.28101 11.7188C4.48951 11.7188 5.69801 11.7188 6.94312 11.7188C7.19016 11.8423 7.38673 11.9445 7.4858 12.2089C7.53873 12.461 7.53337 12.7204 7.40043 12.9448C7.25262 13.1425 7.09417 13.2444 6.85523 13.3008C6.72779 13.313 6.60115 13.3128 6.47319 13.3122C6.41697 13.3124 6.41697 13.3124 6.35962 13.3127C6.2575 13.313 6.15538 13.3129 6.05326 13.3126C5.94586 13.3124 5.83846 13.3126 5.73106 13.3127C5.55067 13.3129 5.37028 13.3127 5.18989 13.3123C4.98216 13.3118 4.77442 13.3119 4.56668 13.3124C4.38758 13.3128 4.20849 13.3129 4.02938 13.3127C3.92275 13.3125 3.81611 13.3125 3.70947 13.3128C3.59036 13.3131 3.47127 13.3127 3.35216 13.3122C3.3174 13.3124 3.28265 13.3125 3.24684 13.3127C2.7978 13.3093 2.41831 13.188 2.08945 12.8767C1.82875 12.5941 1.69564 12.2622 1.69513 11.8786C1.69496 11.8309 1.69496 11.8309 1.69479 11.7823C1.69482 11.7477 1.69484 11.7131 1.69487 11.6775C1.69478 11.6405 1.69469 11.6035 1.6946 11.5654C1.69437 11.4629 1.69431 11.3604 1.69429 11.258C1.69424 11.1474 1.69402 11.0368 1.69382 10.9262C1.69342 10.6844 1.69325 10.4426 1.69312 10.2009C1.69304 10.0498 1.69291 9.89878 1.69278 9.74773C1.69242 9.32928 1.69212 8.91083 1.69202 8.49237C1.69202 8.4656 1.69201 8.43884 1.692 8.41125C1.692 8.38442 1.69199 8.35759 1.69198 8.32994C1.69197 8.27557 1.69196 8.2212 1.69194 8.16683C1.69194 8.13987 1.69193 8.1129 1.69192 8.08511C1.69181 7.6483 1.6913 7.21149 1.69061 6.77468C1.68992 6.32589 1.68955 5.8771 1.68952 5.42831C1.68949 5.17646 1.68933 4.92462 1.68879 4.67277C1.68834 4.45828 1.68819 4.24379 1.68843 4.0293C1.68855 3.91996 1.68852 3.81062 1.68811 3.70128C1.68767 3.58248 1.68791 3.4637 1.68822 3.3449C1.68798 3.3107 1.68774 3.27651 1.6875 3.24128C1.69017 2.79477 1.81389 2.4164 2.1231 2.08972C2.40778 1.82708 2.74013 1.69633 3.12604 1.69513Z" fill="#0075FF"/>
<path d="M10.3711 4.24803C10.566 4.40587 10.7434 4.58645 10.9209 4.76335C10.9566 4.79878 10.9566 4.79878 10.9931 4.83492C11.0707 4.91204 11.1483 4.98926 11.2259 5.06651C11.2659 5.10638 11.2659 5.10638 11.3068 5.14705C11.4333 5.27308 11.5598 5.39916 11.6863 5.52534C11.8313 5.67012 11.9766 5.81466 12.1222 5.959C12.249 6.08484 12.3755 6.211 12.5019 6.33728C12.5554 6.39064 12.609 6.4439 12.6627 6.49706C12.7378 6.57143 12.8125 6.64616 12.8871 6.72098C12.9091 6.74263 12.9312 6.76428 12.9539 6.78659C13.1614 6.99615 13.2882 7.19455 13.3081 7.49266C13.3009 7.87431 13.0388 8.12232 12.7847 8.37616C12.7599 8.40111 12.7352 8.42605 12.7097 8.45175C12.6424 8.51953 12.5749 8.58718 12.5074 8.65475C12.4651 8.6971 12.4228 8.7395 12.3805 8.7819C12.2328 8.9302 12.0849 9.07834 11.9368 9.22634C11.7994 9.36377 11.6622 9.50152 11.5253 9.63943C11.4071 9.75833 11.2888 9.87699 11.1702 9.99549C11.0997 10.066 11.0292 10.1367 10.9589 10.2076C10.8805 10.2866 10.8017 10.3652 10.7228 10.4438C10.6999 10.467 10.677 10.4902 10.6534 10.5141C10.4484 10.7169 10.2371 10.8707 9.9408 10.8764C9.69877 10.8725 9.51562 10.8054 9.33975 10.6366C9.16423 10.4351 9.12428 10.2445 9.12117 9.98106C9.17556 9.67904 9.36345 9.48339 9.57699 9.27587C9.60506 9.24808 9.63309 9.22026 9.66109 9.1924C9.73412 9.11992 9.80758 9.0479 9.88115 8.97596C9.95644 8.90218 10.0313 8.82797 10.1062 8.7538C10.2527 8.60888 10.3996 8.46444 10.5469 8.32029C10.5216 8.32025 10.4963 8.32021 10.4703 8.32016C9.85481 8.31908 9.23935 8.31735 8.62388 8.31491C8.32624 8.31374 8.0286 8.31279 7.73096 8.31235C7.47149 8.31197 7.21201 8.31118 6.95254 8.3099C6.8152 8.30924 6.67786 8.30878 6.54052 8.30881C6.41112 8.30883 6.28173 8.30831 6.15234 8.30737C6.10497 8.30712 6.0576 8.30707 6.01023 8.30723C5.70761 8.30814 5.49025 8.2803 5.23682 8.10972C5.06542 7.93443 4.98932 7.74998 4.97314 7.5073C4.97775 7.26241 5.07892 7.06202 5.24414 6.88475C5.42023 6.74534 5.58233 6.7018 5.80481 6.70081C5.82518 6.70064 5.84554 6.70047 5.86653 6.70029C5.93441 6.6998 6.00228 6.69971 6.07016 6.69962C6.11897 6.69935 6.16777 6.69905 6.21658 6.69873C6.34882 6.69793 6.48107 6.69749 6.61331 6.69711C6.75161 6.69665 6.88991 6.69587 7.0282 6.69512C7.28998 6.69374 7.55175 6.69267 7.81353 6.6917C8.1116 6.69058 8.40967 6.68913 8.70773 6.68765C9.32078 6.68463 9.93383 6.68201 10.5469 6.67967C10.531 6.6641 10.5151 6.64854 10.4987 6.6325C10.3484 6.48508 10.1983 6.3373 10.0487 6.18911C9.97181 6.11296 9.89477 6.03694 9.8174 5.96124C9.74261 5.88806 9.66819 5.81451 9.59401 5.7407C9.55213 5.69922 9.50988 5.65811 9.46763 5.61702C9.28695 5.43642 9.16437 5.27742 9.12403 5.02176C9.12434 4.75641 9.16301 4.56626 9.33975 4.36338C9.63095 4.08384 10.0234 4.05249 10.3711 4.24803Z" fill="#0075FF"/>
</svg>
