<svg width="15" height="15" viewBox="0 0 15 15" fill="none" xmlns="http://www.w3.org/2000/svg">
<path d="M12.5391 6.56265H8.4375C8.06454 6.56265 7.70685 6.41449 7.44313 6.15077C7.17941 5.88705 7.03125 5.52936 7.03125 5.1564V1.05484C7.03125 1.02376 7.0189 0.993953 6.99693 0.971976C6.97495 0.949999 6.94514 0.937653 6.91406 0.937653H4.21875C3.72147 0.937653 3.24456 1.1352 2.89292 1.48683C2.54129 1.83846 2.34375 2.31537 2.34375 2.81265V12.1876C2.34375 12.6849 2.54129 13.1618 2.89292 13.5135C3.24456 13.8651 3.72147 14.0626 4.21875 14.0626H10.7812C11.2785 14.0626 11.7554 13.8651 12.1071 13.5135C12.4587 13.1618 12.6562 12.6849 12.6562 12.1876V6.67984C12.6562 6.64876 12.6439 6.61895 12.6219 6.59697C12.5999 6.575 12.5701 6.56265 12.5391 6.56265Z" fill="#0075FF"/>
<path d="M12.2818 5.526L8.06865 1.31282C8.06046 1.30467 8.05004 1.29913 8.03871 1.29689C8.02737 1.29465 8.01563 1.29581 8.00495 1.30022C7.99428 1.30464 7.98514 1.31211 7.9787 1.3217C7.97226 1.33129 7.9688 1.34257 7.96875 1.35412V5.15715C7.96875 5.28147 8.01814 5.4007 8.10604 5.48861C8.19395 5.57652 8.31318 5.6259 8.4375 5.6259H12.2405C12.2521 5.62585 12.2634 5.62239 12.273 5.61595C12.2825 5.60951 12.29 5.60037 12.2944 5.5897C12.2988 5.57902 12.3 5.56728 12.2978 5.55594C12.2955 5.54461 12.29 5.53419 12.2818 5.526Z" fill="#0075FF"/>
</svg>
