<svg width="15" height="15" viewBox="0 0 15 15" fill="none" xmlns="http://www.w3.org/2000/svg">
<path d="M13.9933 1.12157C13.9879 1.09566 13.9753 1.07181 13.9569 1.05282C13.9384 1.03382 13.915 1.02048 13.8893 1.01434C12.1733 0.594809 8.20859 2.08983 6.06054 4.23699C5.67742 4.61702 5.32815 5.02971 5.0167 5.47039C4.35429 5.4118 3.69189 5.46072 3.12734 5.70682C1.53447 6.40789 1.0707 8.23719 0.941501 9.0241C0.934173 9.06717 0.936937 9.11136 0.949577 9.15318C0.962216 9.195 0.984386 9.23332 1.01434 9.26512C1.0443 9.29692 1.08123 9.32134 1.12222 9.33646C1.16321 9.35157 1.20715 9.35697 1.25058 9.35223L3.80849 9.0701C3.81032 9.26295 3.82196 9.45558 3.84336 9.64725C3.85623 9.78035 3.91531 9.90473 4.01035 9.99881L5.00088 10.987C5.09504 11.0819 5.21938 11.141 5.35244 11.154C5.54303 11.1753 5.73459 11.1869 5.92636 11.1888L5.6457 13.7435C5.64102 13.787 5.64646 13.8309 5.66159 13.8718C5.67673 13.9128 5.70115 13.9497 5.73294 13.9796C5.76472 14.0096 5.80302 14.0317 5.84481 14.0444C5.8866 14.0571 5.93076 14.0599 5.97382 14.0526C6.75927 13.9266 8.59179 13.4629 9.28876 11.87C9.53486 11.3054 9.58525 10.6463 9.52841 9.98709C9.97016 9.67561 10.3839 9.32625 10.765 8.94295C12.9198 6.79901 14.4063 2.92274 13.9933 1.12157ZM8.61523 6.38533C8.41847 6.1887 8.28445 5.93813 8.23011 5.66532C8.17578 5.39251 8.20357 5.10972 8.30998 4.8527C8.41639 4.59569 8.59663 4.37601 8.82791 4.22145C9.05918 4.06689 9.3311 3.98439 9.60927 3.98439C9.88744 3.98439 10.1594 4.06689 10.3906 4.22145C10.6219 4.37601 10.8022 4.59569 10.9086 4.8527C11.015 5.10972 11.0428 5.39251 10.9884 5.66532C10.9341 5.93813 10.8001 6.1887 10.6033 6.38533C10.4728 6.51599 10.3179 6.61965 10.1473 6.69037C9.97676 6.76109 9.79392 6.7975 9.60927 6.7975C9.42462 6.7975 9.24179 6.76109 9.07122 6.69037C8.90065 6.61965 8.7457 6.51599 8.61523 6.38533Z" fill="#0075FF"/>
<path d="M4.93359 11.7028C4.77305 11.8636 4.51553 11.9263 4.20557 11.9799C3.50918 12.0986 2.89424 11.4968 3.01934 10.7928C3.06709 10.5259 3.2083 10.1518 3.29619 10.0639C3.3154 10.045 3.32819 10.0206 3.33274 9.99411C3.33728 9.96759 3.33336 9.94031 3.32152 9.91615C3.30968 9.89199 3.29053 9.87217 3.26679 9.85951C3.24305 9.84685 3.21592 9.84199 3.18926 9.84563C2.79983 9.89327 2.43754 10.0698 2.16006 10.3472C1.47129 11.0365 1.40625 13.5945 1.40625 13.5945C1.40625 13.5945 3.96562 13.5294 4.65439 12.8401C4.93261 12.5628 5.10939 12.2 5.15625 11.81C5.16709 11.6875 5.01797 11.6146 4.93359 11.7028Z" fill="#0075FF"/>
</svg>
